<svg width="100" height="100" viewBox="0 0 100 100" fill="none" xmlns="http://www.w3.org/2000/svg">
  <rect width="100" height="100" rx="20" fill="#6366F1"/>
  <path d="M50 25C36.2 25 25 36.2 25 50C25 63.8 36.2 75 50 75C63.8 75 75 63.8 75 50C75 36.2 63.8 25 50 25ZM50 70C38.95 70 30 61.05 30 50C30 38.95 38.95 30 50 30C61.05 30 70 38.95 70 50C70 61.05 61.05 70 50 70Z" fill="white"/>
  <path d="M50 35C41.7 35 35 41.7 35 50C35 58.3 41.7 65 50 65C58.3 65 65 58.3 65 50C65 41.7 58.3 35 50 35ZM50 60C44.5 60 40 55.5 40 50C40 44.5 44.5 40 50 40C55.5 40 60 44.5 60 50C60 55.5 55.5 60 50 60Z" fill="white"/>
  <circle cx="50" cy="50" r="8" fill="white"/>
  <path d="M30 80L25 85M70 80L75 85M50 80V87" stroke="white" stroke-width="3" stroke-linecap="round"/>
  <path d="M35 22L30 17M65 22L70 17M50 22V15" stroke="white" stroke-width="3" stroke-linecap="round"/>
</svg>
